<svg version="1.1" viewBox="0 0 1791.6 1720.3" xmlns="http://www.w3.org/2000/svg">
 <rect width="1791.6" height="1720.3" fill="#fff" stroke-width="5.6786"/>
 <g transform="translate(-82.576 -65.698)">
  <g transform="translate(648.42 .70711)">
   <path d="m-57.301 232.94 592.81-8e-3v582.26h-847.25z" color="#000000" color-rendering="auto" dominant-baseline="auto" fill="#e0e0e0" image-rendering="auto" shape-rendering="auto" solid-color="#000000" stop-color="#000000" style="font-feature-settings:normal;font-variant-alternates:normal;font-variant-caps:normal;font-variant-east-asian:normal;font-variant-ligatures:normal;font-variant-numeric:normal;font-variant-position:normal;font-variation-settings:normal;inline-size:0;isolation:auto;mix-blend-mode:normal;paint-order:stroke fill markers;shape-margin:0;shape-padding:0;text-decoration-color:#000000;text-decoration-line:none;text-decoration-style:solid;text-indent:0;text-orientation:mixed;text-transform:none;white-space:normal"/>
  </g>
  <g transform="matrix(1 0 0 .59596 404.12 970.05)">
   <path d="m-58.515 238.52 593.75-0.0138v578.3l-505.17-0.0278z" color="#000000" color-rendering="auto" dominant-baseline="auto" fill="#e0e0e0" image-rendering="auto" shape-rendering="auto" solid-color="#000000" stop-color="#000000" style="font-feature-settings:normal;font-variant-alternates:normal;font-variant-caps:normal;font-variant-east-asian:normal;font-variant-ligatures:normal;font-variant-numeric:normal;font-variant-position:normal;font-variation-settings:normal;inline-size:0;isolation:auto;mix-blend-mode:normal;paint-order:stroke fill markers;shape-margin:0;shape-padding:0;text-decoration-color:#000000;text-decoration-line:none;text-decoration-style:solid;text-indent:0;text-orientation:mixed;text-transform:none;white-space:normal"/>
  </g>
  <rect x="578.62" y="114.03" width="584.19" height="208.47" fill="#737373" stroke-linecap="round" stroke-linejoin="round" stroke-width="5.1543" style="paint-order:stroke fill markers"/>
  <rect x="440.93" y="421.33" width="721.37" height="208.47" fill="#737373" stroke-linecap="round" stroke-linejoin="round" stroke-width="5.7275" style="paint-order:stroke fill markers"/>
  <rect x="317.62" y="753.95" width="596.14" height="208.47" fill="#737373" stroke-linecap="round" stroke-linejoin="round" stroke-width="5.2067" style="paint-order:stroke fill markers"/>
  <rect x="369.66" y="1058.5" width="544.1" height="208.47" fill="#737373" stroke-linecap="round" stroke-linejoin="round" stroke-width="4.9743" style="paint-order:stroke fill markers"/>
  <rect x="460.94" y="1399" width="453.43" height="208.47" fill="#737373" stroke-linecap="round" stroke-linejoin="round" stroke-width="4.5409" style="paint-order:stroke fill markers"/>
  <rect x="1026.5" y="1058.7" width="207.1" height="542.95" fill="#737373" stroke-linecap="round" stroke-linejoin="round" stroke-width="4.9527" style="paint-order:stroke fill markers"/>
  <rect x="1342.5" y="732.32" width="207.1" height="673.59" fill="#737373" stroke-linecap="round" stroke-linejoin="round" stroke-width="5.5164" style="paint-order:stroke fill markers"/>
  <rect x="1342.6" y="207.09" width="207.1" height="448.09" fill="#737373" stroke-linecap="round" stroke-linejoin="round" stroke-width="4.4993" style="paint-order:stroke fill markers"/>
  <rect x="1342.6" y="655.18" width="207.02" height="77.135" fill="#e0e0e0" stroke-linecap="round" stroke-linejoin="round" stroke-width="5.333" style="paint-order:stroke fill markers"/>
  <path d="m961.89 285v0l34.25 60.357h-68.501z" fill="#00aeff" stroke-linecap="round" stroke-linejoin="round" stroke-width="5.3247" style="paint-order:stroke fill markers"/>
  <path d="m958.26 595v0l34.25 60.357h-68.501z" fill="#00aeff" stroke-linecap="round" stroke-linejoin="round" stroke-width="5.3247" style="paint-order:stroke fill markers"/>
  <path d="m713.85 920v0l34.25 60.357h-68.501z" fill="#00aeff" stroke-linecap="round" stroke-linejoin="round" stroke-width="5.3247" style="paint-order:stroke fill markers"/>
  <path d="m714.01 1096.5v0l-34.262-60.35 68.501-0.014z" fill="#00aeff" stroke-linecap="round" stroke-linejoin="round" stroke-width="5.3247" style="paint-order:stroke fill markers"/>
  <path d="m526.03 1096.5v0l-34.262-60.35 68.501-0.014z" fill="#00aeff" stroke-linecap="round" stroke-linejoin="round" stroke-width="5.3247" style="paint-order:stroke fill markers"/>
  <path d="m717.92 1435.4v0l-34.262-60.35 68.501-0.014z" fill="#00aeff" stroke-linecap="round" stroke-linejoin="round" stroke-width="5.3247" style="paint-order:stroke fill markers"/>
  <path d="m1203.5 1246.3v0l60.349-34.265 0.017 68.501z" fill="#00aeff" stroke-linecap="round" stroke-linejoin="round" stroke-width="5.3247" style="paint-order:stroke fill markers"/>
  <path d="m1203.5 1542.4v0l60.349-34.265 0.017 68.501z" fill="#00aeff" stroke-linecap="round" stroke-linejoin="round" stroke-width="5.3247" style="paint-order:stroke fill markers"/>
  <path d="m1515.6 826.1v0l60.349-34.265 0.017 68.501z" fill="#00aeff" stroke-linecap="round" stroke-linejoin="round" stroke-width="5.3247" style="paint-order:stroke fill markers"/>
  <path d="m1515.6 570.12v0l60.349-34.265 0.017 68.501z" fill="#00aeff" stroke-linecap="round" stroke-linejoin="round" stroke-width="5.3247" style="paint-order:stroke fill markers"/>
  <path d="m1515.6 290.01v0l60.349-34.265 0.017 68.501z" fill="#00aeff" stroke-linecap="round" stroke-linejoin="round" stroke-width="5.3247" style="paint-order:stroke fill markers"/>
  <path d="m1380.4 1246.1v0l-60.339 34.283-0.037-68.501z" fill="#00aeff" stroke-linecap="round" stroke-linejoin="round" stroke-width="5.3247" style="paint-order:stroke fill markers"/>
  <text x="1578.7094" y="311.27838" fill="#00aeff" font-family="Mistral" font-size="60px" letter-spacing="0px" word-spacing="0px" style="line-height:1.25" xml:space="preserve"><tspan x="1578.7094" y="311.27838" fill="#00aeff" font-family="Arial" font-size="60px">115</tspan></text>
  <text x="1578.7098" y="594.69629" fill="#00aeff" font-family="Mistral" font-size="60px" letter-spacing="0px" word-spacing="0px" style="line-height:1.25" xml:space="preserve"><tspan x="1578.7098" y="594.69629" fill="#00aeff" font-family="Arial" font-size="60px">113</tspan></text>
  <text x="1578.7098" y="843.54681" fill="#00aeff" font-family="Mistral" font-size="60px" letter-spacing="0px" word-spacing="0px" style="line-height:1.25" xml:space="preserve"><tspan x="1578.7098" y="843.54681" fill="#00aeff" font-family="Arial" font-size="60px">111</tspan></text>
  <text x="1382.8458" y="1264.9969" fill="#00aeff" font-family="Mistral" font-size="60px" letter-spacing="0px" word-spacing="0px" style="line-height:1.25" xml:space="preserve"><tspan x="1382.8458" y="1264.9969" fill="#00aeff" font-family="Arial" font-size="60px">109</tspan></text>
  <text x="1262.4688" y="1562.5802" fill="#00aeff" font-family="Mistral" font-size="60px" letter-spacing="0px" word-spacing="0px" style="line-height:1.25" xml:space="preserve"><tspan x="1262.4688" y="1562.5802" fill="#00aeff" font-family="Arial" font-size="60px">105</tspan></text>
  <text x="1102.3206" y="1264.9971" fill="#00aeff" font-family="Mistral" font-size="60px" letter-spacing="0px" word-spacing="0px" style="line-height:1.25" xml:space="preserve"><tspan x="1102.3206" y="1264.9971" fill="#00aeff" font-family="Arial" font-size="60px">107</tspan></text>
  <text x="944.21875" y="395.69629" fill="#00aeff" font-family="Mistral" font-size="60px" letter-spacing="0px" word-spacing="0px" style="line-height:1.25" xml:space="preserve"><tspan x="944.21875" y="395.69629" fill="#00aeff" font-family="Arial" font-size="60px">1</tspan></text>
  <text x="942.80664" y="705.5625" fill="#00aeff" font-family="Mistral" font-size="60px" letter-spacing="0px" word-spacing="0px" style="line-height:1.25" xml:space="preserve"><tspan x="942.80664" y="705.5625" fill="#00aeff" font-family="Arial" font-size="60px">3</tspan></text>
  <text x="698.80664" y="907.0625" fill="#00aeff" font-family="Mistral" font-size="60px" letter-spacing="0px" word-spacing="0px" style="line-height:1.25" xml:space="preserve"><tspan x="698.80664" y="907.0625" fill="#00aeff" font-family="Arial" font-size="60px">7</tspan></text>
  <text x="696.80664" y="1151.0625" fill="#00aeff" font-family="Mistral" font-size="60px" letter-spacing="0px" word-spacing="0px" style="line-height:1.25" xml:space="preserve"><tspan x="696.80664" y="1151.0625" fill="#00aeff" font-family="Arial" font-size="60px">6</tspan></text>
  <text x="508.48682" y="1151.063" fill="#00aeff" font-family="Mistral" font-size="60px" letter-spacing="0px" word-spacing="0px" style="line-height:1.25" xml:space="preserve"><tspan x="508.48682" y="1151.063" fill="#00aeff" font-family="Arial" font-size="60px">8</tspan></text>
  <text x="699.05664" y="1363.8125" fill="#00aeff" font-family="Mistral" font-size="60px" letter-spacing="0px" word-spacing="0px" style="line-height:1.25" xml:space="preserve"><tspan x="699.05664" y="1363.8125" fill="#00aeff" font-family="Arial" font-size="60px">4</tspan></text>
  <g transform="matrix(.10994 0 0 .10994 406.05 654.68)">
   <circle cx="215" cy="409" r="161" fill="none" stroke="#000" stroke-width="40px"/>
   <circle cx="790" cy="406" r="161" fill="none" stroke="#000" stroke-width="40px"/>
   <path d="m429.48 15.467c-132.57 1.2921-110.08-13.696-181.41 215.52-58.103 183.14-51.774 163.17-52.078 176.02-0.21296 9.9802 7.8433 17.893 17.967 18.57 21.054-2.1288 12.198 2.277 85.191-224.39 266.71 281.36 166.65 235.73 310.18 241.44 188.64-1.8089 203.97 9.8197 206.21-17.831-0.25842-9.389-4.6514-14.988-134.12-303.12l12.404-34.111 42.638-0.77524-1.5505-35.661h-158.92c-14.04 19.209 5.6851 19.123 76.749 34.886l-12.404 34.886-317.07 0.77525c21.362-74.596 9.3029-69.944 105.43-69.772zm-115.37 144.44 310.26-0.55011-89.668 240.95zm347.67 14.303-88.018 231.05 192.54 0.55011z" fill-rule="evenodd"/>
  </g>
  <g transform="matrix(.10994 0 0 .10994 418.27 1306.9)">
   <circle cx="215" cy="409" r="161" fill="none" stroke="#000" stroke-width="40px"/>
   <circle cx="790" cy="406" r="161" fill="none" stroke="#000" stroke-width="40px"/>
   <path d="m429.48 15.467c-132.57 1.2921-110.08-13.696-181.41 215.52-58.103 183.14-51.774 163.17-52.078 176.02-0.21296 9.9802 7.8433 17.893 17.967 18.57 21.054-2.1288 12.198 2.277 85.191-224.39 266.71 281.36 166.65 235.73 310.18 241.44 188.64-1.8089 203.97 9.8197 206.21-17.831-0.25842-9.389-4.6514-14.988-134.12-303.12l12.404-34.111 42.638-0.77524-1.5505-35.661h-158.92c-14.04 19.209 5.6851 19.123 76.749 34.886l-12.404 34.886-317.07 0.77525c21.362-74.596 9.3029-69.944 105.43-69.772zm-115.37 144.44 310.26-0.55011-89.668 240.95zm347.67 14.303-88.018 231.05 192.54 0.55011z" fill-rule="evenodd"/>
  </g>
  <g transform="matrix(.10994 0 0 .10994 1389.9 662.58)">
   <circle cx="215" cy="409" r="161" fill="none" stroke="#000" stroke-width="40px"/>
   <circle cx="790" cy="406" r="161" fill="none" stroke="#000" stroke-width="40px"/>
   <path d="m429.48 15.467c-132.57 1.2921-110.08-13.696-181.41 215.52-58.103 183.14-51.774 163.17-52.078 176.02-0.21296 9.9802 7.8433 17.893 17.967 18.57 21.054-2.1288 12.198 2.277 85.191-224.39 266.71 281.36 166.65 235.73 310.18 241.44 188.64-1.8089 203.97 9.8197 206.21-17.831-0.25842-9.389-4.6514-14.988-134.12-303.12l12.404-34.111 42.638-0.77524-1.5505-35.661h-158.92c-14.04 19.209 5.6851 19.123 76.749 34.886l-12.404 34.886-317.07 0.77525c21.362-74.596 9.3029-69.944 105.43-69.772zm-115.37 144.44 310.26-0.55011-89.668 240.95zm347.67 14.303-88.018 231.05 192.54 0.55011z" fill-rule="evenodd"/>
  </g>
  <g transform="matrix(.10994 0 0 .10994 1389.9 1428.3)">
   <circle cx="215" cy="409" r="161" fill="none" stroke="#000" stroke-width="40px"/>
   <circle cx="790" cy="406" r="161" fill="none" stroke="#000" stroke-width="40px"/>
   <path d="m429.48 15.467c-132.57 1.2921-110.08-13.696-181.41 215.52-58.103 183.14-51.774 163.17-52.078 176.02-0.21296 9.9802 7.8433 17.893 17.967 18.57 21.054-2.1288 12.198 2.277 85.191-224.39 266.71 281.36 166.65 235.73 310.18 241.44 188.64-1.8089 203.97 9.8197 206.21-17.831-0.25842-9.389-4.6514-14.988-134.12-303.12l12.404-34.111 42.638-0.77524-1.5505-35.661h-158.92c-14.04 19.209 5.6851 19.123 76.749 34.886l-12.404 34.886-317.07 0.77525c21.362-74.596 9.3029-69.944 105.43-69.772zm-115.37 144.44 310.26-0.55011-89.668 240.95zm347.67 14.303-88.018 231.05 192.54 0.55011z" fill-rule="evenodd"/>
  </g>
  <text x="767.75" y="568.75" fill="#e0e0e0" font-family="Arial" font-size="133.33px" letter-spacing="0px" word-spacing="0px" style="line-height:1.25" xml:space="preserve"><tspan x="767.75" y="568.75">F</tspan></text>
  <text x="818.12469" y="264.09592" fill="#e0e0e0" font-family="Arial" font-size="133.33px" letter-spacing="0px" word-spacing="0px" style="line-height:1.25" xml:space="preserve"><tspan x="818.12469" y="264.09592">G</tspan></text>
  <text x="571.86859" y="905.72125" fill="#e0e0e0" font-family="Arial" font-size="133.33px" letter-spacing="0px" word-spacing="0px" style="line-height:1.25" xml:space="preserve"><tspan x="571.86859" y="905.72125">E</tspan></text>
  <text x="1406.0343" y="1010.2213" fill="#e0e0e0" font-family="Arial" font-size="133.33px" letter-spacing="0px" word-spacing="0px" style="line-height:1.25" xml:space="preserve"><tspan x="1406.0343" y="1010.2213">A</tspan></text>
  <text x="1406.0339" y="433.72122" fill="#e0e0e0" font-family="Arial" font-size="133.33px" letter-spacing="0px" word-spacing="0px" style="line-height:1.25" xml:space="preserve"><tspan x="1406.0339" y="433.72122">A</tspan></text>
  <text x="580.36859" y="1219.7212" fill="#e0e0e0" font-family="Arial" font-size="133.33px" letter-spacing="0px" word-spacing="0px" style="line-height:1.25" xml:space="preserve"><tspan x="580.36859" y="1219.7212">D</tspan></text>
  <text x="629.36859" y="1547.2212" fill="#e0e0e0" font-family="Arial" font-size="133.33px" letter-spacing="0px" word-spacing="0px" style="line-height:1.25" xml:space="preserve"><tspan x="629.36859" y="1547.2212">C</tspan></text>
  <text x="1084.3687" y="1385.2212" fill="#e0e0e0" font-family="Arial" font-size="133.33px" letter-spacing="0px" word-spacing="0px" style="line-height:1.25" xml:space="preserve"><tspan x="1084.3687" y="1385.2212">B</tspan></text>
  <text x="1005.5058" y="611.31891" fill="#aa0000" font-family="Arial" font-size="60px" letter-spacing="0px" word-spacing="0px" style="line-height:1.25" xml:space="preserve"><tspan x="1005.5058" y="611.31891">BAR</tspan></text>
  <text transform="rotate(-65.507)" x="-621.81122" y="447.35306" fill="#737373" font-family="Arial" font-size="60px" letter-spacing="0px" word-spacing="0px" style="line-height:1.25" xml:space="preserve"><tspan x="-621.81122" y="447.35306">Ferdinand-Sauerbruch-Weg</tspan></text>
  <text transform="rotate(75.03)" x="1016.115" y="186.36394" fill="#737373" font-family="Arial" font-size="60px" letter-spacing="0px" word-spacing="0px" style="line-height:1.25" xml:space="preserve"><tspan x="1016.115" y="186.36394">Sebastian-Kneipp-Weg</tspan></text>
  <text transform="rotate(270)" x="-1118.5646" y="1861.76" fill="#737373" font-family="Arial" font-size="60px" letter-spacing="0px" word-spacing="0px" style="line-height:1.25" xml:space="preserve"><tspan x="-1118.5646" y="1861.76">Eselsbergsteige</tspan></text>
  <g transform="matrix(.17578 0 0 .17578 296.58 649.38)">
   <g fill="#010002">
    <path d="m107.42 388.24h173.33c21.207 0 38.342-17.159 38.342-38.342v-268.98h-249.99v268.98c0 21.183 17.167 38.342 38.318 38.342zm146.58-258.6c0-7.178 5.796-13.03 13.006-13.03 7.178 0 13.006 5.853 13.006 13.03v208.31c0 7.21-5.828 13.038-13.006 13.038-7.21 0-13.006-5.828-13.006-13.038v-208.31zm-72.507 0c0-7.178 5.804-13.03 13.006-13.03 7.178 0 13.006 5.853 13.006 13.03v208.31c0 7.21-5.828 13.038-13.006 13.038-7.202 0-13.006-5.828-13.006-13.038v-208.31zm-72.466 0c0-7.178 5.796-13.03 12.973-13.03s13.038 5.853 13.038 13.03v208.31c0 7.21-5.861 13.038-13.038 13.038-7.178 0-12.973-5.828-12.973-13.038z"/>
    <path d="m294.44 20.451h-52.779c-1.268-11.485-10.908-20.451-22.703-20.451h-49.682c-11.86 0-21.476 8.966-22.736 20.451h-52.745c-25.865 0-46.756 20.955-46.902 46.756h294.47c-0.098-25.8-21.021-46.756-46.919-46.756z"/>
   </g>
  </g>
  <g transform="matrix(.17578 0 0 .17578 308.12 1292.8)">
   <g fill="#010002">
    <path d="m107.42 388.24h173.33c21.207 0 38.342-17.159 38.342-38.342v-268.98h-249.99v268.98c0 21.183 17.167 38.342 38.318 38.342zm146.58-258.6c0-7.178 5.796-13.03 13.006-13.03 7.178 0 13.006 5.853 13.006 13.03v208.31c0 7.21-5.828 13.038-13.006 13.038-7.21 0-13.006-5.828-13.006-13.038v-208.31zm-72.507 0c0-7.178 5.804-13.03 13.006-13.03 7.178 0 13.006 5.853 13.006 13.03v208.31c0 7.21-5.828 13.038-13.006 13.038-7.202 0-13.006-5.828-13.006-13.038v-208.31zm-72.466 0c0-7.178 5.796-13.03 12.973-13.03s13.038 5.853 13.038 13.03v208.31c0 7.21-5.861 13.038-13.038 13.038-7.178 0-12.973-5.828-12.973-13.038z"/>
    <path d="m294.44 20.451h-52.779c-1.268-11.485-10.908-20.451-22.703-20.451h-49.682c-11.86 0-21.476 8.966-22.736 20.451h-52.745c-25.865 0-46.756 20.955-46.902 46.756h294.47c-0.098-25.8-21.021-46.756-46.919-46.756z"/>
   </g>
  </g>
  <g transform="matrix(.17578 0 0 .17578 1710.9 713.88)">
   <g fill="#010002">
    <path d="m107.42 388.24h173.33c21.207 0 38.342-17.159 38.342-38.342v-268.98h-249.99v268.98c0 21.183 17.167 38.342 38.318 38.342zm146.58-258.6c0-7.178 5.796-13.03 13.006-13.03 7.178 0 13.006 5.853 13.006 13.03v208.31c0 7.21-5.828 13.038-13.006 13.038-7.21 0-13.006-5.828-13.006-13.038v-208.31zm-72.507 0c0-7.178 5.804-13.03 13.006-13.03 7.178 0 13.006 5.853 13.006 13.03v208.31c0 7.21-5.828 13.038-13.006 13.038-7.202 0-13.006-5.828-13.006-13.038v-208.31zm-72.466 0c0-7.178 5.796-13.03 12.973-13.03s13.038 5.853 13.038 13.03v208.31c0 7.21-5.861 13.038-13.038 13.038-7.178 0-12.973-5.828-12.973-13.038z"/>
    <path d="m294.44 20.451h-52.779c-1.268-11.485-10.908-20.451-22.703-20.451h-49.682c-11.86 0-21.476 8.966-22.736 20.451h-52.745c-25.865 0-46.756 20.955-46.902 46.756h294.47c-0.098-25.8-21.021-46.756-46.919-46.756z"/>
   </g>
  </g>
  <g transform="matrix(.30537 0 0 .30537 323.9 1374.3)">
   <path d="m136.2 62.786c-6.138 0-12.489 0.295-18.879 0.876-4.4 0.399-7.643 4.291-7.243 8.691 0.4 4.399 4.286 7.64 8.692 7.242 5.91-0.537 11.774-0.81 17.43-0.81 5.602 0 11.461 0.302 17.413 0.896 0.271 0.027 0.539 0.041 0.806 0.041 4.06 0 7.538-3.079 7.951-7.205 0.439-4.396-2.768-8.316-7.165-8.756-6.479-0.647-12.873-0.975-19.005-0.975z"/>
   <path d="m118.58 59.776c5.991-0.382 11.927-0.576 17.644-0.576s11.653 0.194 17.644 0.576l0.034 2e-3c2.121 0.135 4.208-0.587 5.791-2.006l20.524-18.393c1.676-1.502 2.634-3.647 2.634-5.898v-0.036c0-7.536-5.537-16.336-21.141-16.336-0.551 0-1.102 0.011-1.651 0.032-2.082 0.08-4.081-0.736-5.653-2.105-4.63-4.033-11.144-7.036-18.181-7.036s-13.551 3.004-18.182 7.037c-1.571 1.369-3.57 2.184-5.652 2.104-0.549-0.021-1.1-0.032-1.651-0.032-15.605 0-21.142 8.8-21.142 16.336v0.036c0 2.251 0.958 4.396 2.634 5.898l20.524 18.393c1.583 1.419 3.669 2.141 5.791 2.006z" fill="#fc0"/>
   <path d="m243.86 180.81c-7.454-77.353-55.657-99.738-107.64-99.738s-100.19 22.386-107.64 99.738c-6.239 64.744 14.428 91.636 85.463 91.636h44.355c71.034-1e-3 91.7-26.892 85.462-91.636z" fill="#fc0"/>
   <g transform="matrix(.1913 0 0 .1913 77.29 114.86)">
    <path d="m99.777 446.09c-6.699 12.031-12.031 30.133-12.031 41.539 0 2.648 0 6.016 0.656 10.688l-83.726-143.99c-2.68-4.672-4.676-11.375-4.676-17.414 0-6.047 1.996-13.398 4.676-18.078l40.195-70.328-44.871-25.43 146.02-2.703 70.984 127.91-45.527-26.117zm64.313-405.86c12.715-22.125 33.496-34.18 58.926-34.18 27.48 0 48.918 12.742 64.312 38.828l22.777 38.172-79.051 136.66-127.91-74.352zm9.351 521.72c-38.172 0-69.645-31.477-69.645-69.648 0-10.719 4.703-28.82 11.402-40.195l21.41-38.172h158.76v148.02h-121.92zm127.29-525.76c-10.036-17.391-23.434-29.477-39.512-36.18h164.75c14.738 0 26.113 6.047 32.84 17.445l40.852 69.648 44.191-26.141-71.016 127.28-145.3-2.047 44.871-25.43zm253.86 379.09c20.07 0 36.832-5.359 50.887-16.055l-83.07 144.65c-6.699 11.375-18.73 18.078-32.789 18.078h-78.395v51.57l-75.004-125.23 75.004-125.27v52.258h143.37zm64.258-120.56c6.043 10.719 9.406 22.094 9.406 34.156 0 24.117-15.422 49.57-36.832 61.602-10.062 5.391-24.145 8.75-38.172 8.75h-44.242l-79-136.66 127.92-73.008z"/>
   </g>
  </g>
  <g transform="translate(43.036 23.586)">
   <g transform="matrix(.16305 0 0 .16305 1155.3 1678.9)">
    <path d="m256 246.64c34.809 0 63.127-28.318 63.127-63.126s-28.318-63.127-63.127-63.127c-34.808 0-63.126 28.318-63.126 63.126s28.318 63.127 63.126 63.127zm0-96.253c18.267 0 33.127 14.86 33.127 33.126s-14.86 33.127-33.127 33.127c-18.266 0-33.126-14.86-33.126-33.126s14.86-33.127 33.126-33.127z"/>
    <path d="m304.21 313.44v-7.573c0-8.284-6.716-15-15-15s-15 6.716-15 15v7.573c-3.378 1.015-6.592 2.405-9.602 4.119-5.886-10.237-15.416-18.118-26.813-21.86v-8.009c0-8.284-6.716-15-15-15s-15 6.716-15 15v8.009c-19.257 6.322-33.207 24.46-33.207 45.805v85.687c0 8.284 6.716 15 15 15h132.83c8.284 0 15-6.716 15-15v-69.138c1e-3 -21.036-14.021-38.851-33.206-44.613zm-99.621 28.065c0-10.04 8.168-18.207 18.207-18.207s18.207 8.167 18.207 18.207v70.687h-36.414zm102.83 70.687h-36.414v-54.138c0-9.142 7.438-16.579 16.579-16.579h3.256c9.142 0 16.579 7.438 16.579 16.579z"/>
    <path d="m448.67 482h-16.897v-245.93c0-80.029-53.763-147.73-127.07-168.9v-18.455c-1e-3 -26.857-21.852-48.708-48.709-48.708s-48.708 21.851-48.708 48.708v18.454c-73.303 21.172-127.07 88.875-127.07 168.9v245.93h-16.898c-8.284 0-15 6.716-15 15s6.716 15 15 15h385.34c8.284 0 15-6.716 15-15s-6.716-15-15-15zm-211.38-433.29c0-10.315 8.393-18.708 18.708-18.708s18.708 8.393 18.708 18.708v12.58c-6.149-0.654-12.389-0.997-18.708-0.997s-12.559 0.343-18.708 0.997zm-127.07 187.36c0-80.38 65.395-145.77 145.77-145.77s145.77 65.394 145.77 145.77v245.15h-291.55z"/>
   </g>
   <g transform="matrix(.16305 0 0 .16305 1224 1679)" fill="#3e771e">
    <path d="m256 246.64c34.809 0 63.127-28.318 63.127-63.126s-28.318-63.127-63.127-63.127c-34.808 0-63.126 28.318-63.126 63.126s28.318 63.127 63.126 63.127zm0-96.253c18.267 0 33.127 14.86 33.127 33.126s-14.86 33.127-33.127 33.127c-18.266 0-33.126-14.86-33.126-33.126s14.86-33.127 33.126-33.127z"/>
    <path d="m304.21 313.44v-7.573c0-8.284-6.716-15-15-15s-15 6.716-15 15v7.573c-3.378 1.015-6.592 2.405-9.602 4.119-5.886-10.237-15.416-18.118-26.813-21.86v-8.009c0-8.284-6.716-15-15-15s-15 6.716-15 15v8.009c-19.257 6.322-33.207 24.46-33.207 45.805v85.687c0 8.284 6.716 15 15 15h132.83c8.284 0 15-6.716 15-15v-69.138c1e-3 -21.036-14.021-38.851-33.206-44.613zm-99.621 28.065c0-10.04 8.168-18.207 18.207-18.207s18.207 8.167 18.207 18.207v70.687h-36.414zm102.83 70.687h-36.414v-54.138c0-9.142 7.438-16.579 16.579-16.579h3.256c9.142 0 16.579 7.438 16.579 16.579z"/>
    <path d="m448.67 482h-16.897v-245.93c0-80.029-53.763-147.73-127.07-168.9v-18.455c-1e-3 -26.857-21.852-48.708-48.709-48.708s-48.708 21.851-48.708 48.708v18.454c-73.303 21.172-127.07 88.875-127.07 168.9v245.93h-16.898c-8.284 0-15 6.716-15 15s6.716 15 15 15h385.34c8.284 0 15-6.716 15-15s-6.716-15-15-15zm-211.38-433.29c0-10.315 8.393-18.708 18.708-18.708s18.708 8.393 18.708 18.708v12.58c-6.149-0.654-12.389-0.997-18.708-0.997s-12.559 0.343-18.708 0.997zm-127.07 187.36c0-80.38 65.395-145.77 145.77-145.77s145.77 65.394 145.77 145.77v245.15h-291.55z"/>
   </g>
   <g transform="matrix(.16305 0 0 .16305 1292.5 1678.8)" fill="#72200a">
    <path d="m256 246.64c34.809 0 63.127-28.318 63.127-63.126s-28.318-63.127-63.127-63.127c-34.808 0-63.126 28.318-63.126 63.126s28.318 63.127 63.126 63.127zm0-96.253c18.267 0 33.127 14.86 33.127 33.126s-14.86 33.127-33.127 33.127c-18.266 0-33.126-14.86-33.126-33.126s14.86-33.127 33.126-33.127z"/>
    <path d="m304.21 313.44v-7.573c0-8.284-6.716-15-15-15s-15 6.716-15 15v7.573c-3.378 1.015-6.592 2.405-9.602 4.119-5.886-10.237-15.416-18.118-26.813-21.86v-8.009c0-8.284-6.716-15-15-15s-15 6.716-15 15v8.009c-19.257 6.322-33.207 24.46-33.207 45.805v85.687c0 8.284 6.716 15 15 15h132.83c8.284 0 15-6.716 15-15v-69.138c1e-3 -21.036-14.021-38.851-33.206-44.613zm-99.621 28.065c0-10.04 8.168-18.207 18.207-18.207s18.207 8.167 18.207 18.207v70.687h-36.414zm102.83 70.687h-36.414v-54.138c0-9.142 7.438-16.579 16.579-16.579h3.256c9.142 0 16.579 7.438 16.579 16.579z"/>
    <path d="m448.67 482h-16.897v-245.93c0-80.029-53.763-147.73-127.07-168.9v-18.455c-1e-3 -26.857-21.852-48.708-48.709-48.708s-48.708 21.851-48.708 48.708v18.454c-73.303 21.172-127.07 88.875-127.07 168.9v245.93h-16.898c-8.284 0-15 6.716-15 15s6.716 15 15 15h385.34c8.284 0 15-6.716 15-15s-6.716-15-15-15zm-211.38-433.29c0-10.315 8.393-18.708 18.708-18.708s18.708 8.393 18.708 18.708v12.58c-6.149-0.654-12.389-0.997-18.708-0.997s-12.559 0.343-18.708 0.997zm-127.07 187.36c0-80.38 65.395-145.77 145.77-145.77s145.77 65.394 145.77 145.77v245.15h-291.55z"/>
   </g>
  </g>
 </g>
</svg>
